<?xml version="1.0" encoding="UTF-8" standalone="no"?>
<!DOCTYPE svg PUBLIC "-//W3C//DTD SVG 1.1//EN" "http://www.w3.org/Graphics/SVG/1.1/DTD/svg11.dtd">
<svg width="100%" height="100%" viewBox="0 0 512 513" version="1.1" xmlns="http://www.w3.org/2000/svg" xmlns:xlink="http://www.w3.org/1999/xlink" xml:space="preserve" xmlns:serif="http://www.serif.com/" style="fill-rule:evenodd;clip-rule:evenodd;stroke-linecap:round;stroke-linejoin:round;stroke-miterlimit:1.5;">
    <g transform="matrix(1,0,0,1,-244.604,-244.931)">
        <g>
            <path d="M594.502,393.027C604.428,396.807 614.426,401.273 624.498,406.436C652.825,391.566 681.294,378.337 713.494,408.348L664.679,465.823C680.904,487.603 690.982,509.329 694.561,530.999L715.571,530.999C725.619,530.998 734.981,536.095 740.435,544.534C741.758,546.583 742.82,548.722 743.619,550.954C744.67,553.887 745.207,556.98 745.207,560.096C745.208,567.102 745.208,588.034 745.208,594.37C745.208,595.923 744.998,597.469 744.584,598.965C744.528,598.978 744.521,599.005 744.513,599.031C740.766,612.165 728.765,621.221 715.107,621.221C703.256,621.231 685.802,621.231 685.802,621.231C677.325,644.416 660.978,665.951 637.381,685.966L637.381,715.609C637.381,726.487 631.385,736.479 621.787,741.598C620.886,742.032 619.986,742.487 619.067,742.923C611.503,746.517 602.736,746.578 595.122,743.089C594.374,742.746 593.639,742.39 592.918,742.021C582.898,736.949 576.582,726.673 576.582,715.442C576.542,708.597 576.542,701.696 576.542,701.696C534.408,718.034 493.491,718.524 453.904,701.696L453.904,716.895C453.905,727.752 447.84,737.699 438.189,742.671C438.166,742.627 438.166,742.627 438.166,742.627C430.636,746.485 421.799,746.868 413.963,743.677C412.198,743.005 410.511,742.245 408.889,741.428C398.904,736.435 392.596,726.229 392.596,715.065C392.545,699.855 392.545,677.507 392.545,677.507C351.966,645.251 327.594,611.337 320.097,575.697C318.398,567.533 317.638,559.202 317.833,550.865C318.845,508.798 331.223,471.75 358.839,441.434C372.264,426.68 388.224,414.449 405.961,405.321C415.19,400.552 424.128,396.818 434.185,393.027" style="fill:none;stroke:black;stroke-width:20.83px;"/>
            <path d="M255.021,499.784C262.025,539.763 281.454,561.301 317.761,557.788" style="fill:none;stroke:black;stroke-width:20.83px;"/>
            <g transform="matrix(1.89753,0,0,1.89753,-543.271,-472.083)">
                <circle cx="606.044" cy="528.194" r="6.221"/>
            </g>
            <g>
                <g transform="matrix(1.17689,0,0,1.17689,-88.1021,-64.4311)">
                    <circle cx="512.4" cy="349.122" r="77.406" style="fill:none;stroke:rgb(95,130,255);stroke-width:17.7px;"/>
                </g>
                <g transform="matrix(0.402457,0,0,0.402457,308.715,205.939)">
                    <circle cx="512.4" cy="349.122" r="77.406" style="fill:none;stroke:rgb(95,130,255);stroke-width:51.77px;"/>
                </g>
            </g>
            <path d="M438.592,439.047L592.052,439.047" style="fill:none;stroke:black;stroke-width:20.83px;"/>
        </g>
    </g>
</svg>
