<?xml version="1.0" encoding="UTF-8" standalone="no"?>
<!DOCTYPE svg PUBLIC "-//W3C//DTD SVG 1.1//EN" "http://www.w3.org/Graphics/SVG/1.1/DTD/svg11.dtd">
<svg width="100%" height="100%" viewBox="0 0 512 476" version="1.1" xmlns="http://www.w3.org/2000/svg" xmlns:xlink="http://www.w3.org/1999/xlink" xml:space="preserve" xmlns:serif="http://www.serif.com/" style="fill-rule:evenodd;clip-rule:evenodd;stroke-linecap:round;stroke-linejoin:round;stroke-miterlimit:1.5;">
    <g transform="matrix(1,0,0,1,-243.75,-262.038)">
        <g>
            <g transform="matrix(1.15239,0,0,1.02822,-109.772,-17.476)">
                <path d="M742.022,555.309C742.022,540.051 730.969,527.663 717.355,527.663L696.211,527.663C682.597,527.663 671.544,540.051 671.544,555.309L671.544,692.417C671.544,707.675 682.597,720.063 696.211,720.063L717.355,720.063C730.969,720.063 742.022,707.675 742.022,692.417L742.022,555.309Z" style="fill:none;stroke:black;stroke-width:19.08px;"/>
            </g>
            <path d="M539.885,625.485L375.295,625.485C375.295,625.485 326.842,573.661 308.501,554.045C302.183,547.288 293.117,543.799 283.899,544.576C281.859,544.764 279.801,545.101 277.723,545.619C266.565,548.415 257.903,557.208 255.274,568.406C259.304,557.27 256.891,562.349 255.516,567.792C253.327,576.454 255.194,585.642 260.59,592.763C301.667,647.063 339.996,688.481 374.039,710.488C383.447,716.528 394.073,720.416 405.158,721.874C457.381,728.622 509.604,728.907 561.827,724.625C567.027,724.192 572.191,723.39 577.278,722.225C599.295,717.192 662.824,702.645 662.824,702.645L662.824,563.175C645.879,552.9 626.682,544.653 604.987,538.656C586.344,533.443 566.671,533.12 547.867,537.72C528.998,542.256 514.429,548.209 501.857,554.83C496.257,557.789 490.018,559.335 483.684,559.335C467.355,559.364 434.51,559.364 411.608,559.364C397.893,559.364 386.774,570.482 386.774,584.198L386.774,625.485" style="fill:none;stroke:black;stroke-width:20.83px;"/>
            <path d="M294.258,543.647L294.258,272.455L705.029,272.455L705.029,521.159" style="fill:none;stroke:black;stroke-width:20.83px;"/>
            <path d="M294.258,367.521L705.029,367.521" style="fill:none;stroke:black;stroke-width:20.83px;"/>
            <g transform="matrix(0.958546,0,0,1.00013,18.7809,1.17847)">
                <rect x="449.899" y="271.284" width="101.031" height="166.46" style="fill:none;stroke:rgb(95,130,255);stroke-width:21.27px;"/>
            </g>
        </g>
    </g>
</svg>
