<?xml version="1.0" encoding="UTF-8" standalone="no"?>
<!DOCTYPE svg PUBLIC "-//W3C//DTD SVG 1.1//EN" "http://www.w3.org/Graphics/SVG/1.1/DTD/svg11.dtd">
<svg width="100%" height="100%" viewBox="0 0 513 512" version="1.1" xmlns="http://www.w3.org/2000/svg" xmlns:xlink="http://www.w3.org/1999/xlink" xml:space="preserve" xmlns:serif="http://www.serif.com/" style="fill-rule:evenodd;clip-rule:evenodd;stroke-linecap:round;stroke-linejoin:round;stroke-miterlimit:1.5;">
    <g transform="matrix(1,0,0,1,-243.544,-244.797)">
        <g>
            <g>
                <g transform="matrix(1.01045,0,0,0.792789,-2.91965,147.054)">
                    <path d="M638.396,715.767C638.396,694.229 624.677,676.743 607.778,676.743L284.841,676.743C267.943,676.743 254.223,694.229 254.223,715.767C254.223,737.306 267.943,754.792 284.841,754.792L607.778,754.792C624.677,754.792 638.396,737.306 638.396,715.767Z" style="fill:none;stroke:black;stroke-width:22.94px;"/>
                </g>
                <g transform="matrix(1,-6.99095e-05,-6.99095e-05,0.968596,-0.952152,21.4938)">
                    <path d="M388.188,621L388.192,674.305" style="fill:none;stroke:black;stroke-width:21.16px;"/>
                </g>
                <g transform="matrix(1,-6.99095e-05,-6.99095e-05,0.968596,121.048,21.4938)">
                    <path d="M388.188,621L388.192,674.305" style="fill:none;stroke:black;stroke-width:21.16px;"/>
                </g>
                <rect x="300.475" y="531.492" width="152.081" height="91.631" style="fill:none;stroke:black;stroke-width:20.83px;"/>
                <g transform="matrix(1,-6.99095e-05,-6.99095e-05,0.968596,-41.9522,-103.506)">
                    <path d="M388.188,621L388.19,654.189" style="fill:none;stroke:black;stroke-width:21.16px;"/>
                </g>
                <path d="M452.556,449.79L452.556,623.123L595.927,623.123L595.927,555.027C595.191,518.707 570.2,486.428 525.654,457.408C518.085,452.478 509.246,449.853 500.213,449.853C482.324,449.79 452.556,449.79 452.556,449.79Z" style="fill:none;stroke:black;stroke-width:20.83px;"/>
                <path d="M513.389,453.255L513.389,555.027L593.52,555.027" style="fill:none;stroke:black;stroke-width:20.83px;"/>
            </g>
            <g>
                <g transform="matrix(1.04688,0,0,1.04688,-22.9668,-26.5412)">
                    <circle cx="484.492" cy="425.557" r="28.318" style="fill:none;stroke:rgb(95,130,255);stroke-width:19.9px;"/>
                </g>
                <path d="M463.712,397.463L596.247,262.026" style="fill:none;stroke:rgb(95,130,255);stroke-width:20.83px;"/>
                <path d="M505.068,440.411L603.474,340.666" style="fill:none;stroke:rgb(95,130,255);stroke-width:20.83px;"/>
                <g transform="matrix(1.04688,0,0,1.04688,107.62,-160.649)">
                    <circle cx="484.492" cy="425.557" r="28.318" style="fill:none;stroke:rgb(95,130,255);stroke-width:19.9px;"/>
                </g>
                <path d="M589.176,299.64L658.834,464.899" style="fill:none;stroke:rgb(95,130,255);stroke-width:20.83px;"/>
                <path d="M643.002,274.086L723.697,463.309" style="fill:none;stroke:rgb(95,130,255);stroke-width:20.83px;"/>
                <path d="M659.401,466.246L659.401,603.1C659.401,603.1 699.829,573.459 725.269,554.807C737.967,545.498 745.469,530.695 745.469,514.95L745.469,495.934C745.469,488.06 742.341,480.509 736.774,474.942C731.206,469.374 723.655,466.246 715.782,466.246L659.401,466.246Z" style="fill:none;stroke:rgb(95,130,255);stroke-width:20.83px;"/>
            </g>
        </g>
    </g>
</svg>
