<?xml version="1.0" encoding="UTF-8" standalone="no"?>
<!DOCTYPE svg PUBLIC "-//W3C//DTD SVG 1.1//EN" "http://www.w3.org/Graphics/SVG/1.1/DTD/svg11.dtd">
<svg width="100%" height="100%" viewBox="0 0 512 510" version="1.1" xmlns="http://www.w3.org/2000/svg" xmlns:xlink="http://www.w3.org/1999/xlink" xml:space="preserve" xmlns:serif="http://www.serif.com/" style="fill-rule:evenodd;clip-rule:evenodd;stroke-linecap:round;stroke-linejoin:round;stroke-miterlimit:1.5;">
    <g transform="matrix(1,0,0,1,-0.002,0.00203922)">
        <g transform="matrix(1,0,0,1,-244.306,-245.257)">
            <g>
                <g>
                    <g transform="matrix(0.967219,0,0,0.967219,3.70044,-27.4229)">
                        <path d="M570.25,740.644C570.25,772.175 544.651,797.774 513.12,797.774C481.589,797.774 455.99,772.175 455.99,740.644" style="fill:none;stroke:black;stroke-width:21.54px;"/>
                    </g>
                    <g transform="matrix(1.06844,0,0,1.16323,-37.1889,-106.338)">
                        <path d="M593.561,657.949C593.561,644.178 581.387,632.996 566.394,632.996L439.162,632.996C424.168,632.996 411.995,644.178 411.995,657.949C411.995,671.721 424.168,682.903 439.162,682.903L566.394,682.903C581.387,682.903 593.561,671.721 593.561,657.949Z" style="fill:none;stroke:black;stroke-width:18.65px;"/>
                    </g>
                    <g transform="matrix(1.06844,0,0,1.16323,-37.1889,-164.338)">
                        <path d="M593.561,657.949C593.561,644.178 581.387,632.996 566.394,632.996L439.162,632.996C424.168,632.996 411.995,644.178 411.995,657.949C411.995,671.721 424.168,682.903 439.162,682.903L566.394,682.903C581.387,682.903 593.561,671.721 593.561,657.949Z" style="fill:none;stroke:black;stroke-width:18.65px;"/>
                    </g>
                    <path d="M418.291,539.096L418.291,572.514" style="fill:none;stroke:black;stroke-width:20.83px;"/>
                    <g transform="matrix(1,0,0,1,163,0)">
                        <path d="M418.716,539.122L418.716,572.609" style="fill:none;stroke:black;stroke-width:20.83px;"/>
                    </g>
                    <g transform="matrix(0.976909,0,0,0.976909,13.0251,17.2571)">
                        <path d="M414.746,533.509C370.826,505.7 341.641,456.679 341.641,400.896C341.641,314.331 411.921,244.052 498.485,244.052C585.05,244.052 655.33,314.331 655.33,400.896C655.33,456.679 626.145,505.7 582.225,533.509" style="fill:none;stroke:black;stroke-width:21.33px;"/>
                    </g>
                </g>
                <g>
                    <path d="M267.883,323.438L297.074,338.369" style="fill:none;stroke:rgb(95,130,255);stroke-width:20.83px;"/>
                    <g transform="matrix(1,0,0,-1,0,803.807)">
                        <path d="M267.883,323.438L297.074,338.369" style="fill:none;stroke:rgb(95,130,255);stroke-width:20.83px;"/>
                    </g>
                    <g transform="matrix(1,0,0,1,0,63)">
                        <path d="M254.723,338.369L287.351,338.369" style="fill:none;stroke:rgb(95,130,255);stroke-width:20.83px;"/>
                    </g>
                    <g transform="matrix(-1,0,0,1,999.957,0)">
                        <path d="M267.883,323.438L297.074,338.369" style="fill:none;stroke:rgb(95,130,255);stroke-width:20.83px;"/>
                    </g>
                    <g transform="matrix(-1,0,0,-1,999.957,803.807)">
                        <path d="M267.883,323.438L297.074,338.369" style="fill:none;stroke:rgb(95,130,255);stroke-width:20.83px;"/>
                    </g>
                    <g transform="matrix(-1,0,0,1,999.957,63)">
                        <path d="M254.723,338.369L287.351,338.369" style="fill:none;stroke:rgb(95,130,255);stroke-width:20.83px;"/>
                    </g>
                    <path d="M498.164,403.346C481.006,427.056 475.428,456.605 477.911,488.65C463.016,480.13 443.018,471.35 437.174,456.628C437.174,456.627 437.174,456.627 437.174,456.627C432.189,444.023 431.56,430.115 435.389,417.113C450.565,364.975 487.006,335.737 538.699,322.909C534.956,346.231 546.655,374.838 560.144,408.834C569.723,433.125 562.684,460.82 542.668,477.589C530.264,487.955 517.776,494.696 505.186,497.155" style="fill:none;stroke:rgb(95,130,255);stroke-width:20.83px;"/>
                    <g transform="matrix(1,0,0,1,9.39819,-0.321949)">
                        <path d="M478.16,517.636C478.503,527.426 481.053,536.393 486.679,544.215" style="fill:none;stroke:rgb(95,130,255);stroke-width:20.83px;"/>
                    </g>
                </g>
            </g>
        </g>
    </g>
</svg>
