<?xml version="1.0" encoding="UTF-8" standalone="no"?>
<!DOCTYPE svg PUBLIC "-//W3C//DTD SVG 1.1//EN" "http://www.w3.org/Graphics/SVG/1.1/DTD/svg11.dtd">
<svg width="100%" height="100%" viewBox="0 0 511 513" version="1.1" xmlns="http://www.w3.org/2000/svg" xmlns:xlink="http://www.w3.org/1999/xlink" xml:space="preserve" xmlns:serif="http://www.serif.com/" style="fill-rule:evenodd;clip-rule:evenodd;stroke-linecap:round;stroke-linejoin:round;stroke-miterlimit:1.5;">
    <g transform="matrix(1,0,0,1,-245.14,-244.346)">
        <g>
            <g transform="matrix(0.787089,0,0,0.787089,86.2795,173.681)">
                <path d="M775.034,428.98C775.034,437.869 772.916,445.612 768.68,452.209C764.444,458.806 758.784,463.98 751.701,467.73C744.617,471.48 736.839,473.841 728.367,474.813L728.367,487.938C728.367,489.883 727.777,491.445 726.596,492.626C725.416,493.806 723.853,494.397 721.909,494.397C720.103,494.397 718.576,493.806 717.326,492.626C716.076,491.445 715.451,489.883 715.451,487.938L715.451,475.022C703.089,474.327 692.082,471.341 682.43,466.063C672.777,460.785 666.145,453.702 662.534,444.813C661.978,443.563 661.701,442.174 661.701,440.647C661.701,438.563 662.395,436.758 663.784,435.23C665.173,433.702 667.117,432.66 669.617,432.105C670.034,431.966 670.659,431.897 671.492,431.897C673.437,431.897 675.346,432.522 677.221,433.772C679.096,435.022 680.52,436.758 681.492,438.98C683.576,443.563 687.742,447.383 693.992,450.438C700.242,453.494 707.395,455.369 715.451,456.063L715.451,399.188C700.728,396.966 689.096,391.862 680.555,383.876C672.013,375.89 667.742,365.994 667.742,354.188C667.742,342.244 672.221,332.522 681.18,325.022C690.138,317.522 701.562,313.147 715.451,311.897L715.451,301.897C715.451,299.952 716.076,298.39 717.326,297.209C718.576,296.028 720.103,295.438 721.909,295.438C723.853,295.438 725.416,296.028 726.596,297.209C727.777,298.39 728.367,299.952 728.367,301.897L728.367,311.897C738.645,312.73 747.221,315.473 754.096,320.126C760.971,324.778 766.839,331.202 771.701,339.397C773.228,342.035 773.992,344.466 773.992,346.688C773.992,349.883 772.673,352.313 770.034,353.98C768.645,354.952 766.978,355.438 765.034,355.438C763.228,355.438 761.492,354.952 759.826,353.98C758.159,353.008 756.839,351.619 755.867,349.813C752.951,344.397 749.305,340.056 744.93,336.792C740.555,333.528 735.034,331.48 728.367,330.647L728.367,382.938C742.812,384.883 754.201,389.848 762.534,397.834C770.867,405.82 775.034,416.202 775.034,428.98ZM688.367,354.397C688.367,360.647 690.346,366.098 694.305,370.751C698.263,375.403 705.312,378.841 715.451,381.063L715.451,330.438C707.256,331.272 700.694,333.772 695.763,337.938C690.832,342.105 688.367,347.591 688.367,354.397ZM728.367,455.647C735.867,454.397 742.048,451.515 746.909,447.001C751.77,442.487 754.201,436.688 754.201,429.605C754.201,422.938 752.048,417.105 747.742,412.105C743.437,407.105 736.978,403.494 728.367,401.272L728.367,455.647Z" style="fill:rgb(95,130,255);fill-rule:nonzero;"/>
            </g>
            <g transform="matrix(1.03568,0,0,0.967991,-36.0538,11.1138)">
                <path d="M587.871,731.176L737.959,731.176C746.933,731.176 754.218,723.381 754.218,713.779L754.218,269.102C754.218,259.501 746.933,251.706 737.959,251.706L445.286,251.706" style="fill:none;stroke:black;stroke-width:20.78px;"/>
            </g>
            <path d="M314.434,678.495L512.774,678.495" style="fill:none;stroke:black;stroke-width:20.83px;"/>
            <path d="M425.337,615.977L517.15,615.977" style="fill:none;stroke:black;stroke-width:20.83px;"/>
            <path d="M315.369,598.024L335.248,615.814L373.636,571.648" style="fill:none;stroke:rgb(95,130,255);stroke-width:20.83px;"/>
            <path d="M314.411,503.842L513.007,503.842" style="fill:none;stroke:black;stroke-width:20.83px;"/>
            <path d="M424.528,440.659L513.052,440.659" style="fill:none;stroke:black;stroke-width:20.83px;"/>
            <path d="M315.569,423.222L335.047,441.467L373.888,397.29" style="fill:none;stroke:rgb(95,130,255);stroke-width:20.83px;"/>
            <g transform="matrix(0.975302,0,0,0.909296,-162.874,81.269)">
                <path d="M518.768,251.706L445.286,251.706C436.312,251.706 429.026,259.52 429.026,269.146L429.026,713.736C429.026,723.361 436.312,731.176 445.286,731.176L737.959,731.176C746.933,731.176 754.218,723.361 754.218,713.736L754.218,269.146C754.218,259.52 746.933,251.706 737.959,251.706L664.695,251.706" style="fill:none;stroke:black;stroke-width:22.1px;"/>
            </g>
            <path d="M350.18,290.645C346.733,290.645 343.939,293.439 343.939,296.886C343.939,306.227 343.939,323.732 343.939,332.979C343.939,334.592 344.58,336.138 345.72,337.279C346.861,338.419 348.407,339.06 350.02,339.06C373.157,339.06 455.566,339.06 478.875,339.06C480.515,339.06 482.088,338.408 483.247,337.249C484.407,336.089 485.058,334.517 485.058,332.877C485.058,323.489 485.058,305.76 485.058,296.544C485.058,293.286 482.417,290.645 479.159,290.645C472.053,290.645 460.261,290.645 453.767,290.645C451.105,290.645 448.777,288.851 448.1,286.276C445.813,277.571 441.884,270.3 435.853,264.878C423.487,253.77 404.76,253.69 392.299,264.692C386.14,270.112 382.147,277.301 380.096,286.08C379.481,288.737 377.114,290.619 374.386,290.619C368.094,290.645 357.094,290.645 350.18,290.645Z" style="fill:none;stroke:black;stroke-width:20.83px;"/>
        </g>
    </g>
</svg>
